# xmcd
#
# Track frame offsets: 
#        150
#        14582
#        28949
#        43984
#        54583
#        64253
#
# Disc length: 1063 seconds
#
# Revision: 0
# Processed by: cddbd v1.5.2PL0 Copyright (c) Steve Scherf et al.
# Submitted via: ExactAudioCopy v0.95b4
#
DISCID=56042506
DTITLE=The Defibulators - The Defibulators
DYEAR=2006
DGENRE=Country
TTITLE0=Defibulator
TTITLE1=Fort Worth Stomp
TTITLE2=Thin Air
TTITLE3=Wild Young Men
TTITLE4=Had Me Fooled
TTITLE5=Armageddon Boogie
EXTD=
EXTT0=
EXTT1=
EXTT2=
EXTT3=
EXTT4=
EXTT5=
PLAYORDER=
